<svg width="31" height="22" viewBox="0 0 31 22" fill="none" xmlns="http://www.w3.org/2000/svg">
<path d="M0 21.6582H8.93139V21.2232C5.71866 20.8192 4.75484 19.5141 4.75484 16.3757V2.11299H4.94761L13.3007 21.6893H14.4573L21.943 2.11299H22.1036V19.452C22.1036 20.6949 21.3004 21.1299 19.0194 21.2232V21.6582H30.1033V21.2232C27.4046 21.1299 26.762 20.6328 26.762 19.452V2.20621C26.762 1.02542 27.4046 0.497174 30.1033 0.403955V0H21.9108L15.8388 15.9718H15.6781L9.0599 0H0V0.403955C2.76295 0.466101 3.95166 1.89548 3.95166 3.75989V16.3757C3.95166 19.5141 3.01997 20.8503 0 21.2232V21.6582Z" fill="#FBD784"/>
</svg>
